<?xml version="1.0" encoding="utf-8"?>
<!-- Generator: Adobe Illustrator 25.4.1, SVG Export Plug-In . SVG Version: 6.00 Build 0)  -->
<svg version="1.1" id="Слой_1" xmlns="http://www.w3.org/2000/svg" xmlns:xlink="http://www.w3.org/1999/xlink" x="0px" y="0px"
	 viewBox="0 0 799.6 780.6" style="enable-background:new 0 0 799.6 780.6;" xml:space="preserve">
<style type="text/css">
	.st0{fill-rule:evenodd;clip-rule:evenodd;fill:#FF0000;stroke:#FF0000;stroke-miterlimit:10;}
</style>
<path class="st0" d="M464,381.4L768.3,77.1c17.5-17.8,17.2-46.4-0.6-63.9C750.1-4,721.9-4,704.4,13.2L400.1,317.5L95.8,13.2
	C78.2-4.5,49.6-4.5,31.9,13.1S14.2,59.3,31.8,77c0,0,0.1,0.1,0.1,0.1l304.2,304.3l-323,323c-17.6,17.6-17.6,46.3,0,63.9
	s46.3,17.6,63.9,0l0,0l323-323l323,323c17.6,17.6,46.3,17.6,63.9,0s17.6-46.3,0-63.9l0,0L464,381.4z"/>
</svg>
